<svg xmlns="http://www.w3.org/2000/svg" width="10" height="9" viewBox="0 0 10 9">
  <path fill="#000000" fill-rule="evenodd" d="M6.932247,7.66037736 L6.52572899,7.66037736 L6.38164666,7.52144082 C6.88593482,6.9348199 7.18953688,6.17324185 7.18953688,5.34476844 C7.18953688,3.4974271 5.69210978,2 3.84476844,2 C1.9974271,2 0.5,3.4974271 0.5,5.34476844 C0.5,7.19210978 1.9974271,8.68953688 3.84476844,8.68953688 C4.67324185,8.68953688 5.4348199,8.38593482 6.02144082,7.88164666 L6.16037736,8.02572899 L6.16037736,8.432247 L8.73327616,11 L9.5,10.2332762 L6.932247,7.66037736 L6.932247,7.66037736 Z M3.84476844,7.66037736 C2.56346484,7.66037736 1.52915952,6.62607204 1.52915952,5.34476844 C1.52915952,4.06346484 2.56346484,3.02915952 3.84476844,3.02915952 C5.12607204,3.02915952 6.16037736,4.06346484 6.16037736,5.34476844 C6.16037736,6.62607204 5.12607204,7.66037736 3.84476844,7.66037736 L3.84476844,7.66037736 Z" transform="translate(0 -2)"/>
</svg>
